<svg width="16" height="16" viewBox="0 0 16 16" fill="none" xmlns="http://www.w3.org/2000/svg">
    <g clip-path="url(#clip0_2133_82506)">
        <path class="modal__close-svg-path"
              d="M1.51672 15.8995C1.12445 15.9223 0.738661 15.7919 0.440711 15.5358C-0.146904 14.9447 -0.146904 13.99 0.440711 13.3989L13.3076 0.532C13.9187 -0.0398937 14.8778 -0.00810247 15.4496 0.603069C15.9668 1.15575 15.9969 2.00523 15.5202 2.59314L2.57757 15.5358C2.28346 15.7882 1.90386 15.9184 1.51672 15.8995V15.8995Z"
              fill="white"/>
        <path class="modal__close-svg-path"
              d="M14.3684 15.8995C13.9708 15.8978 13.5898 15.74 13.3075 15.4601L0.440589 2.59313C-0.103806 1.9574 -0.0297926 1.00067 0.605934 0.456224C1.17334 -0.0296787 2.01014 -0.0296787 2.57749 0.456224L15.5201 13.3231C16.1312 13.8951 16.1628 14.8542 15.5907 15.4652C15.568 15.4895 15.5445 15.5131 15.5201 15.5358C15.2032 15.8114 14.7862 15.9431 14.3684 15.8995V15.8995Z"
              fill="white"/>
    </g>
    <defs>
        <clipPath id="clip0_2133_82506">
            <rect width="16" height="16" fill="white"/>
        </clipPath>
    </defs>
</svg>