<svg width="75" height="75" viewBox="0 0 75 75" fill="none" xmlns="http://www.w3.org/2000/svg">
<g clip-path="url(#clip0_2208_82587)">
<path d="M75 37.4998C75 19.4892 60.402 4.89111 42.3913 4.89111C24.8235 4.89111 10.5053 18.7806 9.81153 36.178L5.5667 31.9331C4.29331 30.6598 2.22862 30.6598 0.95508 31.9331C-0.318309 33.2065 -0.318309 35.2712 0.95508 36.5448L10.7377 46.3274C12.0111 47.6008 14.0758 47.6008 15.3494 46.3274L25.132 36.5448C26.4054 35.2714 26.4054 33.2067 25.132 31.9331C23.8586 30.6598 21.7939 30.6598 20.5204 31.9331L16.3412 36.1123C17.0624 22.3488 28.448 11.4129 42.3914 11.4129C56.8002 11.4129 68.4784 23.0911 68.4784 37.4998C68.4784 37.5685 68.4812 37.6365 68.4854 37.704C68.48 37.7738 68.4731 37.8431 68.4719 37.9142C68.4426 39.8544 68.198 41.7849 67.7448 43.6566C67.3241 45.4077 68.4035 47.1685 70.1546 47.5892C70.4123 47.6512 70.6666 47.6805 70.9209 47.6805C72.3916 47.6805 73.7252 46.6762 74.0871 45.1827C74.6512 42.8478 74.9545 40.438 74.9937 38.0153C74.995 37.9343 74.9924 37.8543 74.9879 37.7746C74.9952 37.684 75 37.5926 75 37.4998Z" fill="#32404F"/>
<path d="M67.2229 53.4718C65.8239 52.3338 63.7729 52.5522 62.638 53.9511C61.425 55.4445 60.0391 56.8109 58.5163 58.0077C57.1011 59.1197 56.8597 61.1708 57.9684 62.586C58.6141 63.4045 59.5695 63.8317 60.5347 63.8317C61.239 63.8317 61.9531 63.6034 62.5499 63.1338C64.4509 61.637 66.1857 59.9284 67.702 58.0599C68.837 56.6609 68.6218 54.6066 67.2229 53.4718Z" fill="#32404F"/>
<path d="M48.1434 62.9511C46.2684 63.3718 44.3347 63.587 42.3913 63.587C40.588 63.587 39.1304 65.0479 39.1304 66.8479C39.1304 68.6479 40.588 70.1088 42.3913 70.1088C44.8141 70.1088 47.2304 69.8415 49.575 69.3131C51.3327 68.9185 52.4348 67.174 52.0402 65.4163C51.6456 63.6586 49.8913 62.5631 48.1434 62.9511Z" fill="#32404F"/>
</g>
<defs>
<clipPath id="clip0_2208_82587">
<rect width="75" height="75" fill="white"/>
</clipPath>
</defs>
</svg>
